<svg xmlns="http://www.w3.org/2000/svg" viewBox="0 0 1200 900" width="1200" height="900" style="background-color: #0b0f19; font-family: 'Inter', -apple-system, BlinkMacSystemFont, 'Segoe UI', Roboto, sans-serif;">
  <defs>
    <linearGradient id="primaryGlow" x1="0%" y1="0%" x2="100%" y2="100%">
      <stop offset="0%" stop-color="#4f46e5" stop-opacity="0.8"/>
      <stop offset="100%" stop-color="#06b6d4" stop-opacity="0.8"/>
    </linearGradient>
    <linearGradient id="cardGrad" x1="0%" y1="0%" x2="0%" y2="100%">
      <stop offset="0%" stop-color="#1e293b" stop-opacity="0.9"/>
      <stop offset="100%" stop-color="#0f172a" stop-opacity="0.9"/>
    </linearGradient>
    <linearGradient id="queueGrad" x1="0%" y1="0%" x2="100%" y2="0%">
      <stop offset="0%" stop-color="#f59e0b" stop-opacity="0.2"/>
      <stop offset="100%" stop-color="#10b981" stop-opacity="0.2"/>
    </linearGradient>
    <filter id="dropShadow" x="-10%" y="-10%" width="120%" height="120%">
      <feDropShadow dx="0" dy="4" stdDeviation="6" flood-color="#000000" flood-opacity="0.5"/>
    </filter>
    <marker id="arrow" viewBox="0 0 10 10" refX="8" refY="5" markerWidth="6" markerHeight="6" orient="auto-start-reverse">
      <path d="M 0 1 L 10 5 L 0 9 z" fill="#38bdf8" />
    </marker>
    <marker id="arrow-emerald" viewBox="0 0 10 10" refX="8" refY="5" markerWidth="6" markerHeight="6" orient="auto-start-reverse">
      <path d="M 0 1 L 10 5 L 0 9 z" fill="#10b981" />
    </marker>
    <marker id="arrow-amber" viewBox="0 0 10 10" refX="8" refY="5" markerWidth="6" markerHeight="6" orient="auto-start-reverse">
      <path d="M 0 1 L 10 5 L 0 9 z" fill="#f59e0b" />
    </marker>
  </defs>

  <!-- Title Banner -->
  <rect x="0" y="0" width="1200" height="70" fill="#0f172a" />
  <line x1="0" y1="70" x2="1200" y2="70" stroke="#6366f1" stroke-width="2" />
  <text x="30" y="38" fill="#f8fafc" font-size="22" font-weight="700" letter-spacing="0.5">LogLens – Sequence Diagram</text>
  <text x="30" y="58" fill="#94a3b8" font-size="13">End-to-end message flow for asynchronous log ingestion, queue processing, and real-time broadcast</text>
  <rect x="1040" y="20" width="130" height="30" rx="6" fill="#1e1b4b" stroke="#6366f1" stroke-width="1"/>
  <text x="1105" y="40" fill="#a5b4fc" font-size="12" font-weight="600" text-anchor="middle">LOGLENS ARCH</text>

    <g filter="url(#dropShadow)">
      <rect x="30" y="100" width="140" height="50" rx="10" fill="#111827" stroke="#38bdf8" stroke-width="1.5" />
      <rect x="30" y="100" width="140" height="34" rx="10" fill="#1e293b" />
      <rect x="30" y="130" width="140" height="4" fill="#38bdf8" />
      <text x="45" y="122" fill="#f8fafc" font-size="14" font-weight="600">LogLens SDK</text>
      <text x="45" y="150" fill="#94a3b8" font-size="12">External App</text>
    </g>
  <line x1="100" y1="150" x2="100" y2="820" stroke="#38bdf8" stroke-width="1.5" stroke-dasharray="4,4" />
    <g filter="url(#dropShadow)">
      <rect x="30" y="820" width="140" height="40" rx="10" fill="#111827" stroke="#38bdf8" stroke-width="1.5" />
      <rect x="30" y="820" width="140" height="34" rx="10" fill="#1e293b" />
      <rect x="30" y="850" width="140" height="4" fill="#38bdf8" />
      <text x="45" y="842" fill="#f8fafc" font-size="14" font-weight="600">LogLens SDK</text>
      
    </g>
  
    <g filter="url(#dropShadow)">
      <rect x="210" y="100" width="140" height="50" rx="10" fill="#111827" stroke="#6366f1" stroke-width="1.5" />
      <rect x="210" y="100" width="140" height="34" rx="10" fill="#1e293b" />
      <rect x="210" y="130" width="140" height="4" fill="#6366f1" />
      <text x="225" y="122" fill="#f8fafc" font-size="14" font-weight="600">Express API</text>
      <text x="225" y="150" fill="#94a3b8" font-size="12">Ingestion Gateway</text>
    </g>
  <line x1="280" y1="150" x2="280" y2="820" stroke="#6366f1" stroke-width="1.5" stroke-dasharray="4,4" />
    <g filter="url(#dropShadow)">
      <rect x="210" y="820" width="140" height="40" rx="10" fill="#111827" stroke="#6366f1" stroke-width="1.5" />
      <rect x="210" y="820" width="140" height="34" rx="10" fill="#1e293b" />
      <rect x="210" y="850" width="140" height="4" fill="#6366f1" />
      <text x="225" y="842" fill="#f8fafc" font-size="14" font-weight="600">Express API</text>
      
    </g>
  
    <g filter="url(#dropShadow)">
      <rect x="390" y="100" width="140" height="50" rx="10" fill="#111827" stroke="#f59e0b" stroke-width="1.5" />
      <rect x="390" y="100" width="140" height="34" rx="10" fill="#1e293b" />
      <rect x="390" y="130" width="140" height="4" fill="#f59e0b" />
      <text x="405" y="122" fill="#f8fafc" font-size="14" font-weight="600">BullMQ / Redis</text>
      <text x="405" y="150" fill="#94a3b8" font-size="12">Job Queue</text>
    </g>
  <line x1="460" y1="150" x2="460" y2="820" stroke="#f59e0b" stroke-width="1.5" stroke-dasharray="4,4" />
    <g filter="url(#dropShadow)">
      <rect x="390" y="820" width="140" height="40" rx="10" fill="#111827" stroke="#f59e0b" stroke-width="1.5" />
      <rect x="390" y="820" width="140" height="34" rx="10" fill="#1e293b" />
      <rect x="390" y="850" width="140" height="4" fill="#f59e0b" />
      <text x="405" y="842" fill="#f8fafc" font-size="14" font-weight="600">BullMQ / Redis</text>
      
    </g>
  
    <g filter="url(#dropShadow)">
      <rect x="570" y="100" width="140" height="50" rx="10" fill="#111827" stroke="#10b981" stroke-width="1.5" />
      <rect x="570" y="100" width="140" height="34" rx="10" fill="#1e293b" />
      <rect x="570" y="130" width="140" height="4" fill="#10b981" />
      <text x="585" y="122" fill="#f8fafc" font-size="14" font-weight="600">Log Worker</text>
      <text x="585" y="150" fill="#94a3b8" font-size="12">Background Process</text>
    </g>
  <line x1="640" y1="150" x2="640" y2="820" stroke="#10b981" stroke-width="1.5" stroke-dasharray="4,4" />
    <g filter="url(#dropShadow)">
      <rect x="570" y="820" width="140" height="40" rx="10" fill="#111827" stroke="#10b981" stroke-width="1.5" />
      <rect x="570" y="820" width="140" height="34" rx="10" fill="#1e293b" />
      <rect x="570" y="850" width="140" height="4" fill="#10b981" />
      <text x="585" y="842" fill="#f8fafc" font-size="14" font-weight="600">Log Worker</text>
      
    </g>
  
    <g filter="url(#dropShadow)">
      <rect x="750" y="100" width="140" height="50" rx="10" fill="#111827" stroke="#10b981" stroke-width="1.5" />
      <rect x="750" y="100" width="140" height="34" rx="10" fill="#1e293b" />
      <rect x="750" y="130" width="140" height="4" fill="#10b981" />
      <text x="765" y="122" fill="#f8fafc" font-size="14" font-weight="600">MongoDB</text>
      <text x="765" y="150" fill="#94a3b8" font-size="12">Database</text>
    </g>
  <line x1="820" y1="150" x2="820" y2="820" stroke="#10b981" stroke-width="1.5" stroke-dasharray="4,4" />
    <g filter="url(#dropShadow)">
      <rect x="750" y="820" width="140" height="40" rx="10" fill="#111827" stroke="#10b981" stroke-width="1.5" />
      <rect x="750" y="820" width="140" height="34" rx="10" fill="#1e293b" />
      <rect x="750" y="850" width="140" height="4" fill="#10b981" />
      <text x="765" y="842" fill="#f8fafc" font-size="14" font-weight="600">MongoDB</text>
      
    </g>
  
    <g filter="url(#dropShadow)">
      <rect x="930" y="100" width="140" height="50" rx="10" fill="#111827" stroke="#06b6d4" stroke-width="1.5" />
      <rect x="930" y="100" width="140" height="34" rx="10" fill="#1e293b" />
      <rect x="930" y="130" width="140" height="4" fill="#06b6d4" />
      <text x="945" y="122" fill="#f8fafc" font-size="14" font-weight="600">Socket.IO</text>
      <text x="945" y="150" fill="#94a3b8" font-size="12">Realtime Server</text>
    </g>
  <line x1="1000" y1="150" x2="1000" y2="820" stroke="#06b6d4" stroke-width="1.5" stroke-dasharray="4,4" />
    <g filter="url(#dropShadow)">
      <rect x="930" y="820" width="140" height="40" rx="10" fill="#111827" stroke="#06b6d4" stroke-width="1.5" />
      <rect x="930" y="820" width="140" height="34" rx="10" fill="#1e293b" />
      <rect x="930" y="850" width="140" height="4" fill="#06b6d4" />
      <text x="945" y="842" fill="#f8fafc" font-size="14" font-weight="600">Socket.IO</text>
      
    </g>
  
      <g>
        <line x1="100" y1="190" x2="280" y2="190" stroke="#38bdf8" stroke-width="2"  marker-end="url(#arrow)" />
        <rect x="72" y="178" width="236" height="20" rx="4" fill="#0f172a" stroke="#1f2937" stroke-width="1"/>
        <text x="190" y="192" fill="#f8fafc" font-size="11" font-weight="500" text-anchor="middle">1. POST /api/v1/logs (X-API-Key)</text>
      </g>
    
      <g>
        <line x1="280" y1="235" x2="280" y2="235" stroke="#a5b4fc" stroke-width="2"  marker-end="url(#arrow)" />
        <rect x="169" y="223" width="222" height="20" rx="4" fill="#0f172a" stroke="#1f2937" stroke-width="1"/>
        <text x="280" y="237" fill="#f8fafc" font-size="11" font-weight="500" text-anchor="middle">2. validateApiKey() Middleware</text>
      </g>
    
      <g>
        <line x1="280" y1="280" x2="460" y2="280" stroke="#f59e0b" stroke-width="2"  marker-end="url(#arrow)" />
        <rect x="255.5" y="268" width="229" height="20" rx="4" fill="#0f172a" stroke="#1f2937" stroke-width="1"/>
        <text x="370" y="282" fill="#f8fafc" font-size="11" font-weight="500" text-anchor="middle">3. enqueueSingleLogJob(payload)</text>
      </g>
    
      <g>
        <line x1="460" y1="325" x2="280" y2="325" stroke="#f59e0b" stroke-width="2" stroke-dasharray="4,4" marker-end="url(#arrow)" />
        <rect x="269.5" y="313" width="201" height="20" rx="4" fill="#0f172a" stroke="#1f2937" stroke-width="1"/>
        <text x="370" y="327" fill="#f8fafc" font-size="11" font-weight="500" text-anchor="middle">4. Job ID Registered (<5ms)</text>
      </g>
    
      <g>
        <line x1="280" y1="370" x2="100" y2="370" stroke="#10b981" stroke-width="2" stroke-dasharray="4,4" marker-end="url(#arrow)" />
        <rect x="51" y="358" width="278" height="20" rx="4" fill="#0f172a" stroke="#1f2937" stroke-width="1"/>
        <text x="190" y="372" fill="#f8fafc" font-size="11" font-weight="500" text-anchor="middle">5. HTTP 202 Accepted { success: true }</text>
      </g>
    <rect x="420" y="415" width="600" height="280" rx="8" fill="#1e293b" fill-opacity="0.4" stroke="#10b981" stroke-width="1" stroke-dasharray="6,6" /><text x="435" y="430" fill="#6ee7b7" font-size="12" font-weight="700">Async Background Processing (Phase P Pipeline)</text>
      <g>
        <line x1="640" y1="460" x2="460" y2="460" stroke="#10b981" stroke-width="2"  marker-end="url(#arrow)" />
        <rect x="449.5" y="448" width="201" height="20" rx="4" fill="#0f172a" stroke="#1f2937" stroke-width="1"/>
        <text x="550" y="462" fill="#f8fafc" font-size="11" font-weight="500" text-anchor="middle">6. Dequeue Next Job Payload</text>
      </g>
    
      <g>
        <line x1="640" y1="505" x2="640" y2="505" stroke="#6ee7b7" stroke-width="2"  marker-end="url(#arrow)" />
        <rect x="543" y="493" width="194" height="20" rx="4" fill="#0f172a" stroke="#1f2937" stroke-width="1"/>
        <text x="640" y="507" fill="#f8fafc" font-size="11" font-weight="500" text-anchor="middle">7. validateLogJobPayload()</text>
      </g>
    
      <g>
        <line x1="640" y1="550" x2="820" y2="550" stroke="#10b981" stroke-width="2"  marker-end="url(#arrow)" />
        <rect x="598" y="538" width="264" height="20" rx="4" fill="#0f172a" stroke="#1f2937" stroke-width="1"/>
        <text x="730" y="552" fill="#f8fafc" font-size="11" font-weight="500" text-anchor="middle">8. findById(projectId) & createLog()</text>
      </g>
    
      <g>
        <line x1="820" y1="595" x2="640" y2="595" stroke="#10b981" stroke-width="2" stroke-dasharray="4,4" marker-end="url(#arrow)" />
        <rect x="643.5" y="583" width="173" height="20" rx="4" fill="#0f172a" stroke="#1f2937" stroke-width="1"/>
        <text x="730" y="597" fill="#f8fafc" font-size="11" font-weight="500" text-anchor="middle">9. Created Log Document</text>
      </g>
    
      <g>
        <line x1="640" y1="640" x2="1000" y2="640" stroke="#06b6d4" stroke-width="2"  marker-end="url(#arrow)" />
        <rect x="691.5" y="628" width="257" height="20" rx="4" fill="#0f172a" stroke="#1f2937" stroke-width="1"/>
        <text x="820" y="642" fill="#f8fafc" font-size="11" font-weight="500" text-anchor="middle">10. broadcastNewLog(projectId, log)</text>
      </g>
    
      <g>
        <line x1="1000" y1="715" x2="1000" y2="715" stroke="#06b6d4" stroke-width="2"  marker-end="url(#arrow)" />
        <rect x="871.5" y="703" width="257" height="20" rx="4" fill="#0f172a" stroke="#1f2937" stroke-width="1"/>
        <text x="1000" y="717" fill="#f8fafc" font-size="11" font-weight="500" text-anchor="middle">11. Socket.IO Room Push ("log:new")</text>
      </g>
    
      <g>
        <line x1="640" y1="760" x2="460" y2="760" stroke="#10b981" stroke-width="2"  marker-end="url(#arrow)" />
        <rect x="418" y="748" width="264" height="20" rx="4" fill="#0f172a" stroke="#1f2937" stroke-width="1"/>
        <text x="550" y="762" fill="#f8fafc" font-size="11" font-weight="500" text-anchor="middle">12. updateProgress(100) -> Completed</text>
      </g>
    </svg>